<svg xmlns="http://www.w3.org/2000/svg" viewBox="0 0 100 100">
  <rect width="100" height="100" rx="20" fill="#0d0d0d"/>
  <path fill="#ffffff" d="M86.229,50.001l0.721-0.723c10.115-10.115,10.116-26.574,0-36.69s-26.575-10.116-36.691,0l-0.722,0.721l-0.721-0.721C38.7,2.472,22.24,2.472,12.124,12.588C2.008,22.704,2.008,39.163,12.125,49.278l0.721,0.723l-0.721,0.721C2.008,60.838,2.008,77.296,12.124,87.414c10.117,10.115,26.577,10.115,36.692,0l0.721-0.722l0.722,0.722c10.116,10.115,26.575,10.115,36.691,0c10.116-10.118,10.115-26.576,0-36.692L86.229,50.001z" transform="scale(0.5) translate(50, 50)"/>
</svg>
